<?xml version="1.0" standalone="no"?><!DOCTYPE svg PUBLIC "-//W3C//DTD SVG 1.1//EN" "http://www.w3.org/Graphics/SVG/1.1/DTD/svg11.dtd"><svg class="icon" width="200px" height="200.00px" viewBox="0 0 1024 1024" version="1.1" xmlns="http://www.w3.org/2000/svg"><path d="M187.772885 316.811124v458.308227a50.280417 50.280417 0 0 0 50.280417 50.280417H726.767092a50.280417 50.280417 0 0 0 50.132097-50.280417v-458.308227A50.280417 50.280417 0 0 0 726.767092 266.975666H237.311703a50.280417 50.280417 0 0 0-49.538818 49.835458z" fill="#83C8EC" /><path d="M244.282735 400.463499v57.103129h55.61993V400.463499z" fill="#FFFFFF" /><path d="M344.695249 400.463499v57.103129H400.463499V400.463499z" fill="#FFDA6A" /><path d="M451.337196 400.463499v57.103129h55.61993V400.463499zM556.347625 400.463499v57.103129h55.61993V400.463499zM659.726535 400.463499v57.103129h55.471611V400.463499z" fill="#FFFFFF" /><path d="M244.282735 496.871379v57.103129h55.61993V496.871379z" fill="#FFDA6A" /><path d="M344.695249 496.871379v57.103129H400.463499V496.871379z" fill="#FFFFFF" /><path d="M451.337196 496.871379v57.103129h55.61993V496.871379z" fill="#FFDA6A" /><path d="M556.347625 496.871379v57.103129h55.61993V496.871379zM659.726535 496.871379v57.103129h55.471611V496.871379z" fill="#FFFFFF" /><path d="M244.282735 599.95365v57.103129h55.61993v-57.103129zM344.695249 599.95365v57.103129H400.463499v-57.103129z" fill="#FFDA6A" /><path d="M451.337196 599.95365v57.103129h55.61993v-57.103129z" fill="#FFFFFF" /><path d="M556.347625 599.95365v57.103129h55.61993v-57.103129z" fill="#FFDA6A" /><path d="M659.726535 599.95365v57.103129h55.471611v-57.103129zM244.282735 701.107764v57.103128h55.61993v-57.103128zM344.695249 701.107764v57.103128H400.463499v-57.103128z" fill="#FFFFFF" /><path d="M451.337196 701.107764v57.103128h55.61993v-57.103128z" fill="#FFDA6A" /><path d="M556.347625 701.107764v57.103128h55.61993v-57.103128z" fill="#FFFFFF" /><path d="M659.726535 701.107764v57.103128h55.471611v-57.103128z" fill="#FFDA6A" /><path d="M237.311703 845.422943a71.193511 71.193511 0 0 1-71.193511-71.341831V317.997683a71.193511 71.193511 0 0 1 71.193511-71.341831h4.152955v-29.663963a38.711472 38.711472 0 0 1 38.563152-38.563152h28.477404a38.563152 38.563152 0 0 1 38.414832 38.563152v29.663963h255.851681v-29.663963a38.563152 38.563152 0 0 1 38.563151-38.563152h28.477405a38.563152 38.563152 0 0 1 38.414832 38.563152v29.663963h19.874855a71.341831 71.341831 0 0 1 71.341831 71.341831v455.93511A71.341831 71.341831 0 0 1 728.10197 845.422943z m490.196988-27.587485a44.495944 44.495944 0 0 0 43.754345-44.495945v-455.34183a44.495944 44.495944 0 0 0-43.754345-44.495945H237.311703a44.495944 44.495944 0 0 0-43.606025 44.495945v455.93511a44.495944 44.495944 0 0 0 43.606025 44.495944z m-477.441484-42.864427a23.87949 23.87949 0 0 1-14.831981-5.487833 20.913094 20.913094 0 0 1-7.71263-16.16686v-39.45307a20.913094 20.913094 0 0 1 7.267671-16.760139 23.87949 23.87949 0 0 1 14.831981-5.487834h44.495944a23.87949 23.87949 0 0 1 14.831982 5.487834 21.358053 21.358053 0 0 1 7.71263 16.166859v39.453071a21.358053 21.358053 0 0 1-7.71263 16.16686 23.87949 23.87949 0 0 1-14.831982 5.487833z m103.823871 0a24.17613 24.17613 0 0 1-14.831982-5.487833 21.358053 21.358053 0 0 1-7.71263-16.16686v-39.45307a21.358053 21.358053 0 0 1 6.377752-16.760139 24.17613 24.17613 0 0 1 14.831981-5.487834h44.495945a23.87949 23.87949 0 0 1 14.831981 5.487834 20.913094 20.913094 0 0 1 7.712631 16.166859v39.453071a20.913094 20.913094 0 0 1-7.712631 16.16686 23.87949 23.87949 0 0 1-14.831981 5.487833z m103.82387 0a24.17613 24.17613 0 0 1-14.831982-5.487833 21.358053 21.358053 0 0 1-7.56431-16.16686v-39.45307a21.803013 21.803013 0 0 1 5.932792-16.760139 24.17613 24.17613 0 0 1 14.831982-5.487834h44.495944a24.17613 24.17613 0 0 1 14.831982 5.487834 21.358053 21.358053 0 0 1 7.71263 16.166859v39.453071a21.358053 21.358053 0 0 1-7.71263 16.16686 24.17613 24.17613 0 0 1-14.831982 5.487833z m105.752028 0a24.17613 24.17613 0 0 1-14.831982-5.487833 21.358053 21.358053 0 0 1-7.56431-16.16686v-39.45307a21.803013 21.803013 0 0 1 5.932792-16.760139 24.17613 24.17613 0 0 1 14.831982-5.487834h44.495944A24.17613 24.17613 0 0 1 622.943221 697.103129a21.358053 21.358053 0 0 1 7.712631 16.166859v39.453071a21.358053 21.358053 0 0 1-7.712631 16.760139 24.17613 24.17613 0 0 1-14.831981 5.487833z m105.752027 0a24.32445 24.32445 0 0 1-14.831981-5.487833 21.358053 21.358053 0 0 1-7.564311-16.16686v-39.45307A21.358053 21.358053 0 0 1 652.607184 697.103129a24.32445 24.32445 0 0 1 14.831982-5.487834h44.495944a24.17613 24.17613 0 0 1 14.831982 5.487834 20.913094 20.913094 0 0 1 7.71263 16.166859v39.453071a20.913094 20.913094 0 0 1-7.71263 16.16686 24.17613 24.17613 0 0 1-14.831982 5.487833zM290.706837 747.383546v-27.439166h-36.041715v27.439166z m102.933951 0v-27.439166h-35.893395v27.439166z m103.82387 0v-27.439166H461.274623v27.439166z m105.752028 0v-27.439166h-36.190035v27.439166z m105.603708 0v-27.439166h-36.190035v27.439166z m-458.753187-75.939745a23.73117 23.73117 0 0 1-14.831981-5.339514 20.913094 20.913094 0 0 1-7.71263-16.166859v-39.453071a20.913094 20.913094 0 0 1 7.71263-16.16686 23.73117 23.73117 0 0 1 14.831981-5.339513h44.495945a23.73117 23.73117 0 0 1 14.831981 5.339513 21.358053 21.358053 0 0 1 7.712631 16.16686v39.453071a21.358053 21.358053 0 0 1-7.712631 16.166859 23.73117 23.73117 0 0 1-14.831981 5.339514z m103.823871 0a24.02781 24.02781 0 0 1-14.831982-5.339514 21.358053 21.358053 0 0 1-7.71263-16.166859v-39.453071a21.358053 21.358053 0 0 1 7.71263-16.16686 24.02781 24.02781 0 0 1 14.831982-5.339513h44.495944a23.73117 23.73117 0 0 1 14.831981 5.339513 20.913094 20.913094 0 0 1 7.712631 16.16686v39.453071a20.913094 20.913094 0 0 1-7.712631 16.166859 23.73117 23.73117 0 0 1-14.831981 5.339514z m103.82387 0a24.02781 24.02781 0 0 1-14.831982-5.339514 21.358053 21.358053 0 0 1-7.56431-16.166859v-39.453071a21.803013 21.803013 0 0 1 7.56431-16.16686 24.02781 24.02781 0 0 1 14.831982-5.339513h44.495944a24.02781 24.02781 0 0 1 14.831982 5.339513 21.358053 21.358053 0 0 1 7.71263 16.16686v39.453071a21.358053 21.358053 0 0 1-7.71263 16.166859 24.02781 24.02781 0 0 1-14.831982 5.339514z m105.752028 0a24.02781 24.02781 0 0 1-14.831982-5.339514 21.358053 21.358053 0 0 1-7.56431-16.166859v-39.453071a21.803013 21.803013 0 0 1 7.56431-16.16686 24.02781 24.02781 0 0 1 14.831982-5.339513h44.495944a24.02781 24.02781 0 0 1 14.831982 5.339513 21.358053 21.358053 0 0 1 7.71263 16.16686v39.453071a21.358053 21.358053 0 0 1-7.564311 16.166859 24.02781 24.02781 0 0 1-14.831981 5.339514z m105.752027 0a24.17613 24.17613 0 0 1-14.831981-5.339514 21.358053 21.358053 0 0 1-7.564311-16.166859v-39.453071a21.358053 21.358053 0 0 1 5.784473-16.16686 24.17613 24.17613 0 0 1 14.831982-5.339513h44.495944a24.02781 24.02781 0 0 1 14.831982 5.339513 20.913094 20.913094 0 0 1 7.71263 16.16686v39.453071a20.913094 20.913094 0 0 1-7.71263 16.166859 24.02781 24.02781 0 0 1-14.831982 5.339514zM290.706837 643.856315v-27.290846h-36.041715v27.290846z m102.933951 0v-27.290846h-35.893395v27.290846z m103.82387 0v-27.290846H461.274623v27.290846z m105.752028 0v-27.290846h-36.190035v27.290846z m105.603708 0v-27.290846h-36.190035v27.290846z m-458.753187-72.380069a22.989571 22.989571 0 0 1-14.831981-5.487833 20.616454 20.616454 0 0 1-7.71263-16.01854v-39.453071a20.764774 20.764774 0 0 1 7.71263-16.16686 23.87949 23.87949 0 0 1 14.831981-5.487833h44.495945a23.87949 23.87949 0 0 1 14.831981 5.487833 21.209733 21.209733 0 0 1 7.712631 16.16686v39.453071a21.061414 21.061414 0 0 1-7.712631 16.01854 23.137891 23.137891 0 0 1-14.831981 5.487833z m103.823871 0a23.434531 23.434531 0 0 1-14.831982-5.487833 21.061414 21.061414 0 0 1-7.71263-16.01854v-39.453071a21.209733 21.209733 0 0 1 7.71263-16.16686 24.17613 24.17613 0 0 1 14.831982-5.487833h44.495944a23.87949 23.87949 0 0 1 14.831981 5.487833 20.764774 20.764774 0 0 1 7.712631 16.16686v39.453071a20.616454 20.616454 0 0 1-7.712631 16.01854 23.137891 23.137891 0 0 1-14.831981 5.487833z m103.82387 0a23.434531 23.434531 0 0 1-14.831982-5.487833 21.061414 21.061414 0 0 1-7.56431-16.01854v-39.453071a21.506373 21.506373 0 0 1 7.56431-16.16686 24.17613 24.17613 0 0 1 14.831982-5.487833h44.495944a24.17613 24.17613 0 0 1 14.831982 5.487833 21.209733 21.209733 0 0 1 7.71263 16.16686v39.453071a21.061414 21.061414 0 0 1-7.71263 16.01854 23.434531 23.434531 0 0 1-14.831982 5.487833z m105.752028 0a23.434531 23.434531 0 0 1-14.831982-5.487833 21.061414 21.061414 0 0 1-7.56431-16.01854v-39.453071a21.506373 21.506373 0 0 1 7.56431-16.16686 24.17613 24.17613 0 0 1 14.831982-5.487833h44.495944a24.17613 24.17613 0 0 1 14.831982 5.487833 21.209733 21.209733 0 0 1 7.71263 16.16686v39.453071a21.061414 21.061414 0 0 1-7.564311 16.01854 23.434531 23.434531 0 0 1-14.831981 5.487833z m105.752027 0a23.582851 23.582851 0 0 1-14.831981-5.487833 21.061414 21.061414 0 0 1-7.564311-16.01854v-39.453071a21.061414 21.061414 0 0 1 5.784473-16.16686 24.32445 24.32445 0 0 1 14.831982-5.487833h44.495944a24.17613 24.17613 0 0 1 14.831982 5.487833 20.764774 20.764774 0 0 1 7.71263 16.16686v39.453071a20.616454 20.616454 0 0 1-7.71263 16.01854 23.434531 23.434531 0 0 1-14.831982 5.487833zM290.706837 543.88876v-27.439166h-36.041715v27.439166z m102.933951 0v-27.439166h-35.893395v27.439166z m103.82387 0v-27.439166H461.274623v27.439166z m105.752028 0v-27.439166h-36.190035v27.439166z m105.603708 0v-27.439166h-36.190035v27.439166z m-458.753187-71.78679a23.137891 23.137891 0 0 1-14.831981-5.636153 20.468134 20.468134 0 0 1-7.71263-16.01854v-39.453071a20.913094 20.913094 0 0 1 7.71263-16.16686 23.87949 23.87949 0 0 1 14.831981-5.487833h44.495945a23.87949 23.87949 0 0 1 14.831981 5.487833 21.358053 21.358053 0 0 1 7.712631 16.16686v39.453071a20.913094 20.913094 0 0 1-7.712631 16.01854 23.286211 23.286211 0 0 1-14.831981 5.636153z m103.823871 0a23.582851 23.582851 0 0 1-14.831982-5.636153 20.913094 20.913094 0 0 1-7.71263-16.01854v-39.453071a21.358053 21.358053 0 0 1 7.71263-16.16686 24.17613 24.17613 0 0 1 14.831982-5.487833h44.495944a23.87949 23.87949 0 0 1 14.831981 5.487833 20.913094 20.913094 0 0 1 7.712631 16.16686v39.453071a20.468134 20.468134 0 0 1-7.712631 16.01854 23.286211 23.286211 0 0 1-14.831981 5.636153z m103.82387 0a23.582851 23.582851 0 0 1-14.831982-5.636153 20.764774 20.764774 0 0 1-7.56431-16.01854v-39.453071a21.803013 21.803013 0 0 1 7.56431-16.16686 24.17613 24.17613 0 0 1 14.831982-5.487833h44.495944a24.17613 24.17613 0 0 1 14.831982 5.487833 21.358053 21.358053 0 0 1 7.71263 16.16686v39.453071a20.913094 20.913094 0 0 1-7.71263 16.01854 23.582851 23.582851 0 0 1-14.831982 5.636153z m105.752028 0a23.582851 23.582851 0 0 1-14.831982-5.636153 20.764774 20.764774 0 0 1-7.56431-16.01854v-39.453071a21.803013 21.803013 0 0 1 7.56431-16.16686 24.17613 24.17613 0 0 1 14.831982-5.487833h44.495944a24.17613 24.17613 0 0 1 14.831982 5.487833 21.358053 21.358053 0 0 1 7.71263 16.16686v39.453071a20.913094 20.913094 0 0 1-7.564311 16.01854 23.582851 23.582851 0 0 1-14.831981 5.636153z m105.752027 0a23.582851 23.582851 0 0 1-14.831981-5.636153 20.764774 20.764774 0 0 1-7.564311-16.01854v-39.453071a21.358053 21.358053 0 0 1 5.784473-16.16686 24.32445 24.32445 0 0 1 14.831982-5.487833h44.495944a24.17613 24.17613 0 0 1 14.831982 5.487833 20.913094 20.913094 0 0 1 7.71263 16.16686v39.453071a20.468134 20.468134 0 0 1-7.71263 16.01854 23.582851 23.582851 0 0 1-14.831982 5.636153zM290.706837 444.959444v-27.884125h-36.041715V444.959444z m102.933951 0v-27.884125h-35.893395V444.959444z m103.82387 0v-27.884125H461.274623V444.959444z m105.752028 0v-27.884125h-36.190035V444.959444z m105.603708 0v-27.884125h-36.190035V444.959444z m-469.728853-101.450753a13.793743 13.793743 0 0 1 0-27.587486h474.623407a13.793743 13.793743 0 0 1 0 27.587486z m80.834299-110.349942v-15.870221a10.827346 10.827346 0 0 0-10.827346-10.827346h-28.477405a10.975666 10.975666 0 0 0-10.975666 10.827346v15.870221z m360.713789 0v-15.870221a10.827346 10.827346 0 0 0-10.827346-10.827346h-28.477405a10.975666 10.975666 0 0 0-10.975666 10.827346v15.870221z" fill="#333333" /></svg>