<?xml version="1.0" standalone="no"?><!DOCTYPE svg PUBLIC "-//W3C//DTD SVG 1.1//EN" "http://www.w3.org/Graphics/SVG/1.1/DTD/svg11.dtd"><svg class="icon" width="200px" height="200.00px" viewBox="0 0 1024 1024" version="1.1" xmlns="http://www.w3.org/2000/svg"><path d="M819.2 704c25.6-57.6 6.4-128-32-211.2-38.4-76.8-76.8-89.6-102.4-172.8-32-108.8 0-51.2-25.6-166.4C640 89.6 576 38.4 499.2 44.8c-32 6.4-70.4 19.2-96 51.2-32 38.4-25.6 185.6-19.2 236.8 12.8 51.2-51.2 108.8-64 121.6-12.8 32-32 70.4-44.8 102.4-6.4 25.6-44.8 76.8-44.8 89.6s0 38.4 6.4 38.4c32-38.4 89.6 38.4 108.8 76.8s64 83.2 76.8 128c6.4 19.2 0 38.4-6.4 51.2 44.8-12.8 89.6-12.8 134.4-12.8 32 0 57.6 0 89.6 6.4 0 6.4 0 12.8 6.4 12.8-12.8-25.6-12.8-57.6-6.4-83.2 12.8-51.2 12.8-102.4 12.8-147.2-6.4-25.6 32-25.6 38.4-25.6 6.4 0 12.8 6.4 12.8 12.8v6.4c-6.4 19.2 12.8 44.8 44.8 38.4 25.6-6.4 44.8-19.2 57.6-44.8-6.4 6.4 6.4 0 12.8 0 0 6.4 6.4 6.4 0 0 6.4 0 0 0 0 0z" fill="#020200" /><path d="M486.4 883.2c38.4 0 102.4 0 179.2-115.2 32-38.4 0-51.2 0-57.6s25.6-19.2 19.2-44.8c0-32-6.4-121.6-32-160-19.2-32-32-64-38.4-102.4 0-12.8-6.4-25.6-19.2-44.8 0-6.4-12.8-44.8-12.8-44.8l-179.2-6.4v83.2c0 6.4-25.6 51.2-32 64-12.8 12.8-19.2 44.8-19.2 51.2-6.4 6.4-64 108.8-44.8 179.2v6.4c12.8 12.8 76.8 57.6 108.8 96 6.4 12.8 6.4 25.6 0 38.4-12.8 0-19.2 0-32 6.4 44.8 51.2 32 51.2 102.4 51.2z" fill="#FFFFFF" /><path d="M838.4 761.6c0-19.2 0-38.4-12.8-51.2-6.4-6.4-19.2 0-25.6 6.4-12.8 25.6-32 38.4-57.6 44.8-25.6 0-51.2-25.6-44.8-38.4 0-6.4 0-12.8-6.4-19.2h-6.4c-6.4 0-38.4-6.4-38.4 25.6 0 51.2 0 102.4-12.8 147.2-6.4 25.6-6.4 57.6 6.4 83.2 6.4 6.4 6.4 12.8 12.8 12.8 25.6 12.8 51.2 12.8 76.8 0 32-6.4 25.6-32 83.2-64 96-51.2 89.6-57.6 89.6-76.8-6.4-19.2-70.4-51.2-64-70.4zM422.4 896c-12.8-44.8-70.4-96-76.8-128-12.8-38.4-70.4-115.2-108.8-76.8-12.8 19.2-32 38.4-44.8 51.2-6.4 6.4-57.6 6.4-64 25.6s6.4 64 0 83.2-12.8 44.8 0 57.6c38.4 19.2 83.2 32 121.6 38.4 19.2 0 70.4 38.4 108.8 32 25.6 0 44.8-12.8 57.6-25.6 12.8-19.2 12.8-38.4 6.4-57.6z" fill="#F6DC00" /><path d="M422.4 179.2c6.4 0 32 0 38.4 38.4 6.4 25.6 0 51.2-19.2 70.4-6.4 0-44.8 6.4-44.8-51.2s25.6-57.6 25.6-57.6zM544 172.8c12.8 0 38.4 0 51.2 51.2 12.8 51.2-51.2 70.4-57.6 70.4s-32 0-38.4-64 44.8-57.6 44.8-57.6z" fill="#FFFFFF" /><path d="M480 243.2c12.8 0 32 6.4 44.8 12.8 19.2 12.8 32 19.2 51.2 25.6 12.8 6.4 19.2 12.8 12.8 25.6 0 12.8-6.4 32-19.2 32-19.2 6.4-32 19.2-44.8 25.6-12.8 6.4-32 12.8-44.8 12.8-19.2 0-38.4-12.8-51.2-25.6-19.2-19.2-32-25.6-32-44.8 19.2-32 44.8-57.6 83.2-64z" fill="#F6DC00" /><path d="M448 268.8s12.8 0 12.8-6.4c0 0-12.8 0-12.8 6.4zM505.6 268.8c6.4 0 0-12.8-12.8-12.8l6.4 6.4 6.4 6.4z" fill="#BC5705" /><path d="M467.2 352c-19.2 0-44.8-6.4-57.6-25.6 12.8 12.8 38.4 25.6 57.6 25.6 44.8-6.4 76.8-25.6 108.8-51.2-32 25.6-64 38.4-102.4 51.2h-6.4z" fill="#752700" /><path d="M435.2 243.2m-64 0a64 64 0 1 0 128 0 64 64 0 1 0-128 0Z" fill="#000200" /><path d="M480 243.2a64 64 0 1 0 128 0 64 64 0 1 0-128 0Z" fill="#000200" /><path d="M441.6 249.6c-6.4 0-6.4-6.4 0 0-6.4-12.8-12.8-19.2-12.8-19.2v-6.4h6.4c6.4 0 12.8 12.8 12.8 19.2 0 6.4-6.4 6.4-6.4 6.4zM556.8 236.8c-6.4-6.4-6.4-12.8-12.8-12.8v-6.4h6.4l12.8 12.8c6.4 6.4 0 6.4-6.4 6.4z" fill="#C5C1BF" /></svg>