<?xml version="1.0" standalone="no"?><!DOCTYPE svg PUBLIC "-//W3C//DTD SVG 1.1//EN" "http://www.w3.org/Graphics/SVG/1.1/DTD/svg11.dtd"><svg class="icon" width="200px" height="200.00px" viewBox="0 0 1024 1024" version="1.1" xmlns="http://www.w3.org/2000/svg"><path fill="#e0620d" d="M512 124.8C297.6 124.8 124.8 179.2 124.8 246.4v96c0 67.2 172.8 121.6 387.2 121.6 214.4 0 387.2-54.4 387.2-121.6v-96c0-67.2-172.8-121.6-387.2-121.6z"  /><path fill="#e0620d" d="M512 537.6c-214.4 0-387.2-54.4-387.2-121.6v144c0 67.2 172.8 121.6 387.2 121.6 214.4 0 387.2-54.4 387.2-121.6V416c0 67.2-172.8 121.6-387.2 121.6z"  /><path fill="#e0620d" d="M512 755.2c-214.4 0-387.2-54.4-387.2-121.6v144c0 67.2 172.8 121.6 387.2 121.6 214.4 0 387.2-54.4 387.2-121.6v-144c0 67.2-172.8 121.6-387.2 121.6z"  /></svg>